<?xml version="1.0" encoding="UTF-8" standalone="no"?>
<svg width="217px" height="28px" viewBox="0 0 217 28" version="1.1" xmlns="http://www.w3.org/2000/svg" xmlns:xlink="http://www.w3.org/1999/xlink">
    <!-- Generator: Sketch 41.2 (35397) - http://www.bohemiancoding.com/sketch -->
    <title>Artboard</title>
    <desc>Created with Sketch.</desc>
    <defs></defs>
    <g id="Page-1-Copy" stroke="none" stroke-width="1" fill="none" fill-rule="evenodd">
        <g id="Artboard">
            <g id="Group">
                <path d="M5.988,9.572 C5.6279982,9.86800148 5.448,10.2599976 5.448,10.748 C5.448,11.2360024 5.6679978,11.6239986 6.108,11.912 C6.5480022,12.2000014 7.56399204,12.539998 9.156,12.932 C10.748008,13.324002 11.9839956,13.9119961 12.864,14.696 C13.7440044,15.4800039 14.184,16.6239925 14.184,18.128 C14.184,19.6320075 13.6200056,20.8519953 12.492,21.788 C11.3639944,22.7240047 9.8800092,23.192 8.04,23.192 C5.38398672,23.192 2.99201064,22.2080098 0.864,20.24 L3.096,17.504 C4.90400904,19.0880079 6.57599232,19.88 8.112,19.88 C8.80000344,19.88 9.33999804,19.7320015 9.732,19.436 C10.124002,19.1399985 10.32,18.7400025 10.32,18.236 C10.32,17.7319975 10.1120021,17.3320015 9.696,17.036 C9.27999792,16.7399985 8.45600616,16.4400015 7.224,16.136 C5.27199024,15.6719977 3.84400452,15.0680037 2.94,14.324 C2.03599548,13.5799963 1.584,12.412008 1.584,10.82 C1.584,9.22799204 2.15599428,8.00000432 3.3,7.136 C4.44400572,6.27199568 5.87199144,5.84 7.584,5.84 C8.7040056,5.84 9.8239944,6.03199808 10.944,6.416 C12.0640056,6.80000192 13.0399958,7.34399648 13.872,8.048 L11.976,10.784 C10.5199927,9.67999448 9.01600776,9.128 7.464,9.128 C6.83999688,9.128 6.3480018,9.27599852 5.988,9.572 Z M29.1452308,10.688 C28.185226,9.63199472 27.0052378,9.104 25.6052308,9.104 C24.2052238,9.104 23.0252356,9.63199472 22.0652308,10.688 C21.105226,11.7440053 20.6252308,13.0199925 20.6252308,14.516 C20.6252308,16.0120075 21.105226,17.2839948 22.0652308,18.332 C23.0252356,19.3800052 24.2052238,19.904 25.6052308,19.904 C27.0052378,19.904 28.185226,19.3800052 29.1452308,18.332 C30.1052356,17.2839948 30.5852308,16.0120075 30.5852308,14.516 C30.5852308,13.0199925 30.1052356,11.7440053 29.1452308,10.688 Z M25.5932308,23.168 C23.1132184,23.168 21.0252393,22.3400083 19.3292308,20.684 C17.6332224,19.0279917 16.7852308,16.9680123 16.7852308,14.504 C16.7852308,12.0399877 17.6332224,9.98000828 19.3292308,8.324 C21.0252393,6.66799172 23.1132184,5.84 25.5932308,5.84 C28.0732432,5.84 30.1612224,6.66799172 31.8572308,8.324 C33.5532393,9.98000828 34.4012308,12.0399877 34.4012308,14.504 C34.4012308,16.9680123 33.5532393,19.0279917 31.8572308,20.684 C30.1612224,22.3400083 28.0732432,23.168 25.5932308,23.168 Z M37.9384617,23 L37.9384617,6.224 L41.6824617,6.224 L41.6824617,19.664 L48.8344617,19.664 L48.8344617,23 L37.9384617,23 Z M58.5396925,19.832 C59.5956978,19.832 60.4316894,19.4440039 61.0476925,18.668 C61.6636956,17.8919961 61.9716925,16.8320067 61.9716925,15.488 L61.9716925,6.224 L65.7156925,6.224 L65.7156925,15.608 C65.7156925,18.0400122 65.0436992,19.9079935 63.6996925,21.212 C62.3556858,22.5160065 60.635703,23.168 58.5396925,23.168 C56.443682,23.168 54.7196993,22.5120066 53.3676925,21.2 C52.0156857,19.8879934 51.3396925,18.0240121 51.3396925,15.608 L51.3396925,6.224 L55.0836925,6.224 L55.0836925,15.488 C55.0836925,16.8320067 55.3956894,17.8919961 56.0196925,18.668 C56.6436956,19.4440039 57.4836872,19.832 58.5396925,19.832 Z M77.0769233,9.464 L77.0769233,23 L73.3329233,23 L73.3329233,9.464 L68.5809233,9.464 L68.5809233,6.224 L81.8289233,6.224 L81.8289233,9.464 L77.0769233,9.464 Z M84.9341542,6.224 L88.6781542,6.224 L88.6781542,23 L84.9341542,23 L84.9341542,6.224 Z M104.575385,10.688 C103.61538,9.63199472 102.435392,9.104 101.035385,9.104 C99.635378,9.104 98.4553898,9.63199472 97.495385,10.688 C96.5353802,11.7440053 96.055385,13.0199925 96.055385,14.516 C96.055385,16.0120075 96.5353802,17.2839948 97.495385,18.332 C98.4553898,19.3800052 99.635378,19.904 101.035385,19.904 C102.435392,19.904 103.61538,19.3800052 104.575385,18.332 C105.53539,17.2839948 106.015385,16.0120075 106.015385,14.516 C106.015385,13.0199925 105.53539,11.7440053 104.575385,10.688 Z M101.023385,23.168 C98.5433726,23.168 96.4553935,22.3400083 94.759385,20.684 C93.0633765,19.0279917 92.215385,16.9680123 92.215385,14.504 C92.215385,12.0399877 93.0633765,9.98000828 94.759385,8.324 C96.4553935,6.66799172 98.5433726,5.84 101.023385,5.84 C103.503397,5.84 105.591377,6.66799172 107.287385,8.324 C108.983393,9.98000828 109.831385,12.0399877 109.831385,14.504 C109.831385,16.9680123 108.983393,19.0279917 107.287385,20.684 C105.591377,22.3400083 103.503397,23.168 101.023385,23.168 Z M125.104616,6.224 L128.848616,6.224 L128.848616,23 L125.104616,23 L117.112616,12.488 L117.112616,23 L113.368616,23 L113.368616,6.224 L116.872616,6.224 L125.104616,17.024 L125.104616,6.224 Z M137.269847,9.572 C136.909845,9.86800148 136.729847,10.2599976 136.729847,10.748 C136.729847,11.2360024 136.949844,11.6239986 137.389847,11.912 C137.829849,12.2000014 138.845839,12.539998 140.437847,12.932 C142.029855,13.324002 143.265842,13.9119961 144.145847,14.696 C145.025851,15.4800039 145.465847,16.6239925 145.465847,18.128 C145.465847,19.6320075 144.901852,20.8519953 143.773847,21.788 C142.645841,22.7240047 141.161856,23.192 139.321847,23.192 C136.665833,23.192 134.273857,22.2080098 132.145847,20.24 L134.377847,17.504 C136.185856,19.0880079 137.857839,19.88 139.393847,19.88 C140.08185,19.88 140.621845,19.7320015 141.013847,19.436 C141.405849,19.1399985 141.601847,18.7400025 141.601847,18.236 C141.601847,17.7319975 141.393849,17.3320015 140.977847,17.036 C140.561845,16.7399985 139.737853,16.4400015 138.505847,16.136 C136.553837,15.6719977 135.125851,15.0680037 134.221847,14.324 C133.317842,13.5799963 132.865847,12.412008 132.865847,10.82 C132.865847,9.22799204 133.437841,8.00000432 134.581847,7.136 C135.725852,6.27199568 137.153838,5.84 138.865847,5.84 C139.985852,5.84 141.105841,6.03199808 142.225847,6.416 C143.345852,6.80000192 144.321843,7.34399648 145.153847,8.048 L143.257847,10.784 C141.801839,9.67999448 140.297854,9.128 138.745847,9.128 C138.121844,9.128 137.629848,9.27599852 137.269847,9.572 Z" id="SOLUTIONS" fill="#272A59"></path>
                <rect id="Rectangle" fill="#00B3D6" x="152" y="0" width="65" height="28"></rect>
                <path d="M166.768,19.688 C168.608009,19.688 170.111994,18.9600073 171.28,17.504 L173.68,19.976 C171.77599,22.1200107 169.532013,23.192 166.948,23.192 C164.363987,23.192 162.236008,22.3760082 160.564,20.744 C158.891992,19.1119918 158.056,17.0520124 158.056,14.564 C158.056,12.0759876 158.907991,10.0000083 160.612,8.336 C162.316009,6.67199168 164.399988,5.84 166.864,5.84 C169.616014,5.84 171.919991,6.88798952 173.776,8.984 L171.448,11.624 C170.263994,10.1519926 168.792009,9.416 167.032,9.416 C165.623993,9.416 164.420005,9.8759954 163.42,10.796 C162.419995,11.7160046 161.92,12.9559922 161.92,14.516 C161.92,16.0760078 162.391995,17.3279953 163.336,18.272 C164.280005,19.2160047 165.423993,19.688 166.768,19.688 Z M188.041231,10.688 C187.081226,9.63199472 185.901238,9.104 184.501231,9.104 C183.101224,9.104 181.921236,9.63199472 180.961231,10.688 C180.001226,11.7440053 179.521231,13.0199925 179.521231,14.516 C179.521231,16.0120075 180.001226,17.2839948 180.961231,18.332 C181.921236,19.3800052 183.101224,19.904 184.501231,19.904 C185.901238,19.904 187.081226,19.3800052 188.041231,18.332 C189.001236,17.2839948 189.481231,16.0120075 189.481231,14.516 C189.481231,13.0199925 189.001236,11.7440053 188.041231,10.688 Z M184.489231,23.168 C182.009218,23.168 179.921239,22.3400083 178.225231,20.684 C176.529222,19.0279917 175.681231,16.9680123 175.681231,14.504 C175.681231,12.0399877 176.529222,9.98000828 178.225231,8.324 C179.921239,6.66799172 182.009218,5.84 184.489231,5.84 C186.969243,5.84 189.057222,6.66799172 190.753231,8.324 C192.449239,9.98000828 193.297231,12.0399877 193.297231,14.504 C193.297231,16.9680123 192.449239,19.0279917 190.753231,20.684 C189.057222,22.3400083 186.969243,23.168 184.489231,23.168 Z M208.930462,6.224 L208.930462,9.56 L200.578462,9.56 L200.578462,13.016 L208.090462,13.016 L208.090462,16.208 L200.578462,16.208 L200.578462,19.688 L209.194462,19.688 L209.194462,23 L196.834462,23 L196.834462,6.224 L208.930462,6.224 Z" id="COE" fill="#FFFFFF"></path>
            </g>
        </g>
    </g>
</svg>